Coordinates
version=1
nRows=34
nColumns=19
inDegrees=yes

Units are S.I. units (second, meters, Newtons, ...)
If the header above contains a line with 'inDegrees', this indicates whether rotational values are in degrees (yes) or radians (no).

endheader
time	pelvis_tilt	pelvis_list	pelvis_rotation	pelvis_tx	pelvis_ty	pelvis_tz	hip_flexion_r	hip_adduction_r	hip_rotation_r	knee_angle_r	knee_angle_r_beta	ankle_angle_r	hip_flexion_l	hip_adduction_l	hip_rotation_l	knee_angle_l	knee_angle_l_beta	ankle_angle_l
     14.77333333	     -9.54070257	     -3.46885342	     -5.68436439	      2.23303973	      1.06673599	      1.04445815	     30.02363290	      5.83736308	    -10.75859944	     14.64445316	      0.25559392	     -3.19955620	     -5.21524314	    -12.85683303	    -15.90223292	     67.57399582	      1.17938872	    -13.01987703
     14.78000000	     -9.91998091	     -3.49807895	     -5.86727191	      2.23117694	      1.06093235	      1.04400087	     31.10110024	      5.63643921	    -11.07898663	     17.66143427	      0.30825018	     -2.13890102	     -3.25051880	    -12.92404396	    -14.80227581	     71.35681381	      1.24541134	    -12.75098109
     14.78666667	    -10.03602006	     -3.62059263	     -6.07342655	      2.22935772	      1.05517012	      1.04344081	     31.89029291	      5.48878046	    -11.33226189	     20.91224775	      0.36498758	     -0.74300718	     -1.59375609	    -13.09348111	    -13.91454885	     74.99141967	      1.30884718	    -12.40419186
     14.79333333	    -10.20278720	     -3.69511863	     -6.26371986	      2.22744924	      1.04910536	      1.04281768	     32.73947680	      5.28189905	    -11.45734103	     24.34977456	      0.42498374	      0.95667071	      0.19274870	    -13.20764947	    -13.04982211	     78.53373514	      1.37067225	    -11.97857195
     14.80000000	    -10.43687798	     -3.68066964	     -6.40660805	      2.22543369	      1.04286339	      1.04216217	     33.62302213	      4.99789550	    -11.40218100	     27.83278871	      0.48577380	      2.99793429	      2.14556183	    -13.23810081	    -12.18577104	     81.95622748	      1.43040601	    -11.51816751
     14.80666667	    -10.76185158	     -3.62057120	     -6.51546133	      2.22331432	      1.03652017	      1.04151850	     34.51347168	      4.71138831	    -11.17265965	     31.22643962	      0.54500419	      5.20569618	      4.28152765	    -13.24398475	    -11.34462566	     85.25339281	      1.48795240	    -10.93715674
     14.81333333	    -10.53910628	     -3.77513315	     -6.58223872	      2.22135325	      1.03120278	      1.04096187	     34.54625786	      4.64791617	    -10.87133612	     34.21541083	      0.59717157	      7.60187126	      5.79171997	    -13.51315592	    -10.64848814	     88.28725535	      1.54090329	    -10.23034414
     14.82000000	    -11.63799745	     -3.38847305	     -6.52072889	      2.21866885	      1.02431712	      1.04033100	     36.08285817	      4.15661464	    -10.34797772	     37.27881091	      0.65063799	      9.98357682	      9.13015641	    -13.16969441	     -9.56665606	     91.36777323	      1.59466847	     -9.63970178
     14.82666667	    -12.14784628	     -3.24277707	     -6.40160341	      2.21617241	      1.01880653	      1.03981235	     36.65545159	      3.88856737	     -9.87127606	     39.79390086	      0.69453459	     12.37716596	     11.79921844	    -13.09730654	     -8.61469594	     94.12692820	      1.64282481	     -8.96007919
     14.83333333	    -12.67540221	     -3.11044303	     -6.19662762	      2.21364359	      1.01390916	      1.03933092	     37.00535301	      3.62822905	     -9.44130957	     41.88715748	      0.73106881	     14.68069147	     14.58505772	    -13.01167452	     -7.61856066	     96.63575425	      1.68661209	     -8.30557904
     14.84000000	    -13.23387234	     -3.00579429	     -5.92870819	      2.21109793	      1.00969508	      1.03887135	     37.14103179	      3.38682108	     -9.08801784	     43.54535398	      0.76000980	     16.81652306	     17.48310685	    -12.91871620	     -6.59757856	     98.87569331	      1.72570640	     -7.63400680
     14.84666667	    -13.01679110	     -3.07872298	     -5.70853826	      2.20903548	      1.00743591	      1.03862516	     36.09808766	      3.32473708	     -8.74416006	     44.62560779	      0.77886379	     18.86450453	     19.41647488	    -13.01955683	     -5.80643301	    100.64904521	      1.75665723	     -6.93809248
     14.85333333	    -14.07865194	     -3.00182589	     -5.09246622	      2.20638745	      1.00412433	      1.03781804	     36.29536797	      2.92140301	     -8.87371983	     45.44245821	      0.79312052	     20.43560882	     23.14602058	    -12.73165804	     -4.42383930	    102.38543336	      1.78696292	     -6.44081815
     14.86000000	    -14.23321954	     -3.06704694	     -4.61495487	      2.20440033	      1.00298337	      1.03726031	     35.19415460	      2.69342818	     -8.97552697	     45.71875455	      0.79794280	     21.85444261	     25.66718848	    -12.60949682	     -3.41627788	    103.58074315	      1.80782501	     -5.90590233
     14.86666667	    -14.56932737	     -3.10200931	     -4.14580774	      2.20261172	      1.00238265	      1.03678630	     34.08713348	      2.47468689	     -9.09775932	     45.63346801	      0.79645427	     22.96212380	     28.35342514	    -12.42548587	     -2.50035979	    104.42761197	      1.82260566	     -5.41627529
     14.87333333	    -14.56012482	     -3.19585453	     -3.61291836	      2.20136711	      1.00315458	      1.03625133	     32.34272520	      2.27086511	     -9.38164805	     45.09865915	      0.78712009	     23.74883778	     30.55825675	    -12.24285307	     -1.67485821	    104.84136361	      1.82982699	     -4.94464692
     14.88000000	    -14.57508367	     -3.25245866	     -3.15295021	      2.20037659	      1.00458214	      1.03577952	     30.46390858	      2.09112080	     -9.66100172	     44.25546515	      0.77240358	     24.24736090	     32.67809820	    -12.00192553	     -1.01894883	    104.89993936	      1.83084933	     -4.50704125
     14.88666667	    -14.56260861	     -3.30986335	     -2.66151096	      2.19981474	      1.00680346	      1.03530179	     28.38160129	      1.93992902	     -9.99737008	     43.08711678	      0.75201205	     24.31128681	     34.64699031	    -11.74983004	     -0.47808152	    104.57765420	      1.82522439	     -4.10283959
     14.89333333	    -14.47060484	     -3.31237968	     -2.23120530	      2.19974657	      1.00981557	      1.03491350	     26.06557511	      1.79298272	    -10.31978454	     41.63113040	      0.72660030	     24.04041200	     36.33169053	    -11.47095469	     -0.15769595	    103.87279018	      1.81292219	     -3.68215673
     14.90000000	    -14.26722626	     -3.25489300	     -1.82787894	      2.20015280	      1.01359166	      1.03457186	     23.51584939	      1.65161797	    -10.58792273	     39.93735647	      0.69703836	     23.39835645	     37.70202904	    -11.16413809	     -0.04037901	    102.80437499	      1.79427483	     -3.23686361
     14.90666667	    -14.03881513	     -3.09550712	     -1.50579510	      2.20100743	      1.01796532	      1.03430753	     20.86049765	      1.47419342	    -10.77161673	     38.04553526	      0.66401986	     22.37079009	     38.82355191	    -10.83192092	     -0.18451475	    101.37876594	      1.76939326	     -2.76532506
     14.91333333	    -13.85381366	     -2.80834202	     -1.26965200	      2.20221160	      1.02271196	      1.03414061	     18.23565427	      1.22347114	    -10.83815562	     36.07031958	      0.62954584	     20.88386019	     39.77855194	    -10.45479393	     -0.59204153	     99.63819724	      1.73901460	     -2.30641174
     14.92000000	    -13.72215153	     -2.45962311	     -1.05304862	      2.20373123	      1.02775495	      1.03395102	     15.64657278	      0.93607284	    -10.88399554	     33.98800421	      0.59320258	     19.02499121	     40.61464535	    -10.04008720	     -1.14057490	     97.61314486	      1.70367077	     -1.85073977
     14.92666667	    -13.70785419	     -2.09391638	     -0.82812972	      2.20552974	      1.03290303	      1.03371977	     13.17838283	      0.63885303	    -10.97512063	     31.82972213	      0.55553345	     16.77885171	     41.42369611	     -9.61302580	     -1.76754979	     95.34278487	      1.66404551	     -1.41330661
     14.93333333	    -13.62111537	     -1.56858416	     -0.71897146	      2.20761587	      1.03841019	      1.03359321	     10.68969158	      0.19571680	    -10.94595243	     29.68533561	      0.51810685	     14.16504220	     41.91833362	     -9.13921329	     -2.69146528	     92.77287646	      1.61919215	     -1.00129685
     14.94000000	    -13.57474851	     -1.02352435	     -0.59958674	      2.20995495	      1.04397152	      1.03344817	      8.28942601	     -0.28092376	    -10.99949912	     27.54277953	      0.48071219	     11.16167857	     42.30990397	     -8.66095193	     -3.68987257	     89.97756112	      1.57040469	     -0.71232454
     14.94666667	    -13.63651078	     -0.45644615	     -0.44920450	      2.21235130	      1.04944833	      1.03311052	      6.07479169	     -0.78803451	    -11.06344228	     25.42829480	      0.44380747	      7.90962553	     42.68921883	     -8.07873122	     -4.68578706	     86.97252694	      1.51795695	     -0.32998215
     14.95333333	    -13.66244435	      0.16941890	     -0.35062982	      2.21490508	      1.05496692	      1.03283986	      3.92904768	     -1.38021901	    -11.18411113	     23.41627635	      0.40869112	      4.38690435	     42.86365758	     -7.49756040	     -5.82974328	     83.73968369	      1.46153319	     -0.09189787
     14.96000000	    -13.68692423	      0.79847481	     -0.21944377	      2.21748517	      1.06041083	      1.03244934	      1.89042532	     -2.00225017	    -11.42329499	     21.52000245	      0.37559490	      0.67253473	     42.91872599	     -6.85895407	     -6.97862170	     80.30848548	      1.40164749	      0.11831823
     14.96666667	    -13.68821443	      1.44355201	     -0.14550633	      2.22010389	      1.06575326	      1.03207956	     -0.03797740	     -2.66811644	    -11.71763304	     19.78747288	      0.34535655	     -3.12690585	     42.80628913	     -6.23260749	     -8.22652432	     76.67112819	      1.33816363	      0.27415835
     14.97333333	    -13.77499818	      2.04702608	     -0.01458477	      2.22261441	      1.07077376	      1.03154300	     -1.71625617	     -3.32949020	    -12.19645900	     18.29260924	      0.31926626	     -6.94658757	     42.70203969	     -5.55416457	     -9.40840414	     72.86295999	      1.27169855	      0.38706761
     14.98000000	    -13.77672487	      2.61624168	      0.11856289	      2.22507437	      1.07565554	      1.03095109	     -3.34288509	     -3.98412625	    -12.83106014	     17.01398022	      0.29694997	    -10.65642757	     42.39713450	     -4.86059736	    -10.58151921	     68.87320340	      1.20206417	      0.47637939
     14.98666667	    -13.68716494	      3.11639773	      0.21377463	      2.22745243	      1.08036196	      1.03036646	     -4.90323281	     -4.59732761	    -13.56547081	     16.00253843	      0.27929698	    -14.19894473	     41.88961448	     -4.24276024	    -11.81660815	     64.72780040	      1.12971323	      0.59111868
     14.99333333	    -13.64280032	      3.52242581	      0.33532684	      2.22961239	      1.08464527	      1.02960715	     -6.22730835	     -5.15515699	    -14.44091719	     15.34278885	      0.26778218	    -17.45840795	     41.36964127	     -3.62305763	    -12.96746713	     60.45420315	      1.05512489	      0.68250539
